# xmcd
#
# Track frame offsets: 
#        150
#        20224
#        38880
#        68501
#        86907
#        107810
#        125038
#        145006
#
# Disc length: 2393 seconds
#
# Revision: 0
# Processed by: cddbd v1.5.2PL0 Copyright (c) Steve Scherf et al.
# Submitted via: ExactAudioCopyFreeDBPlugin 1.0
#
DISCID=70095708
DTITLE=Srikanta Acharya - Ghuri
DYEAR=2004
DGENRE=Bengali Adhunik
TTITLE0=Megh Hole Mon
TTITLE1=Teendana
TTITLE2=Udasin Guitar e Chaand
TTITLE3=Aakash Dhele Dilam
TTITLE4=Chorkata Goli
TTITLE5=Meyeta
TTITLE6=Tomay Dewar Moto
TTITLE7=Prithibir Chaabi
EXTD=
EXTT0=
EXTT1=
EXTT2=
EXTT3=
EXTT4=
EXTT5=
EXTT6=
EXTT7=
PLAYORDER=
